<?xml version="1.0" encoding="UTF-8"?>
<svg width="24" height="24" viewBox="0 0 24 24" fill="none" xmlns="http://www.w3.org/2000/svg">
  <defs>
    <!-- Gradiente personalizado -->
    <linearGradient id="courseGradient" x1="0%" y1="0%" x2="100%" y2="100%">
      <stop offset="0%" style="stop-color:#667eea;stop-opacity:1" />
      <stop offset="100%" style="stop-color:#764ba2;stop-opacity:1" />
    </linearGradient>
    
    <!-- Sombra suave -->
    <filter id="softShadow" x="-20%" y="-20%" width="140%" height="140%">
      <feDropShadow dx="0" dy="1" stdDeviation="1" flood-color="#000000" flood-opacity="0.2"/>
    </filter>
  </defs>
  
  <!-- Fondo del icono -->
  <rect x="2" y="2" width="20" height="20" rx="4" ry="4" fill="url(#courseGradient)" filter="url(#softShadow)"/>
  
  <!-- Libros/Cursos apilados -->
  <g fill="white" fill-opacity="0.9">
    <!-- Libro 1 (fondo) -->
    <rect x="5" y="8" width="11" height="1.5" rx="0.3" opacity="0.7"/>
    
    <!-- Libro 2 (medio) -->
    <rect x="5" y="10" width="11" height="1.5" rx="0.3" opacity="0.8"/>
    
    <!-- Libro 3 (frente) - más prominente -->
    <rect x="5" y="12" width="11" height="1.5" rx="0.3" opacity="1"/>
    
    <!-- Libro 4 (último) -->
    <rect x="5" y="14" width="11" height="1.5" rx="0.3" opacity="0.9"/>
  </g>
  
  <!-- Icono de usuario/estudiante -->
  <g fill="white" fill-opacity="0.95">
    <!-- Cabeza del usuario -->
    <circle cx="12" cy="6.5" r="1.8" stroke="none"/>
    
    <!-- Cuerpo del usuario (simplificado) -->
    <path d="M 9.5 8.5 Q 9.5 7.5 12 7.5 Q 14.5 7.5 14.5 8.5 L 14.5 9 Q 14.5 9.5 12 9.5 Q 9.5 9.5 9.5 9 Z" stroke="none"/>
  </g>
  
  <!-- Punto de progreso/completado -->
  <circle cx="17" cy="7" r="2" fill="#4CAF50" stroke="white" stroke-width="0.5" opacity="0.9"/>
  <path d="M 15.8 7 L 16.6 7.8 L 18.2 6.2" stroke="white" stroke-width="1" fill="none" stroke-linecap="round" stroke-linejoin="round"/>
  
  <!-- Líneas decorativas -->
  <g stroke="white" stroke-width="0.5" fill="none" opacity="0.6">
    <line x1="7" y1="17" x2="15" y2="17"/>
    <line x1="7" y1="18.5" x2="13" y2="18.5"/>
  </g>
</svg>